<?xml version="1.0" encoding="UTF-8"?>
<svg version="1.1" xmlns="http://www.w3.org/2000/svg" width="171" height="162">
<path d="M0 0 C1.03519775 -0.02211548 1.03519775 -0.02211548 2.09130859 -0.04467773 C5.31119037 0.0211387 7.243836 0.26571054 9.81207275 2.26544189 C12.00175313 5.03986269 12.13757959 6.38335685 12.17089844 9.88183594 C12.19061707 10.94263367 12.21033569 12.0034314 12.23065186 13.09637451 C12.23188049 14.23503967 12.23310913 15.37370483 12.234375 16.546875 C12.25091125 17.71760559 12.26744751 18.88833618 12.28448486 20.09454346 C12.33307081 23.83391511 12.35436033 27.57287976 12.375 31.3125 C12.40315066 33.84767684 12.43307679 36.38283464 12.46484375 38.91796875 C12.53883281 45.13273835 12.59041324 51.34739299 12.625 57.5625 C15.48346007 54.73347124 18.33594984 51.89849221 21.1875 49.0625 C21.98736328 48.27101562 22.78722656 47.47953125 23.61132812 46.6640625 C27.90429861 42.38861434 32.02173165 38.04129559 35.97134399 33.44769287 C38.69346328 30.3444357 41.59649254 27.42857797 44.51171875 24.5078125 C45.13601273 23.88019012 45.7603067 23.25256775 46.40351868 22.60592651 C47.70887306 21.29555684 49.01554085 19.98649432 50.32348633 18.67871094 C52.3233699 16.67661809 54.31508769 14.66662576 56.30664062 12.65625 C57.58284416 11.37711593 58.85952008 10.09845294 60.13671875 8.8203125 C61.02432137 7.92193161 61.02432137 7.92193161 61.92985535 7.00540161 C62.48756119 6.4507724 63.04526703 5.89614319 63.61987305 5.32470703 C64.10505905 4.83809601 64.59024506 4.35148499 65.09013367 3.85012817 C70.39601955 -0.60107908 76.4153872 0.15874802 83 0.125 C84.1240625 0.09212891 85.248125 0.05925781 86.40625 0.02539062 C95.65850744 -0.03475998 95.65850744 -0.03475998 99.34765625 2.96484375 C102.71127918 6.8015663 102.71127918 6.8015663 102.625 9.5625 C100.26751571 14.3212625 96.76231506 17.66684003 93.015625 21.33203125 C92.37059021 21.97186447 91.72555542 22.61169769 91.06097412 23.2709198 C89.00370019 25.3104479 86.93986857 27.34316354 84.875 29.375 C82.82525123 31.39693835 80.77705403 33.4203868 78.73187256 35.44694519 C77.46245994 36.70430992 76.19038714 37.95899727 74.9151001 39.21040344 C71.96789866 42.12500399 69.14128321 45.08341258 66.44926453 48.23625183 C62.46715394 52.80818205 58.23144872 57.08940227 53.93579102 61.36523438 C53.09596176 62.20520966 52.25613251 63.04518494 51.39085388 63.91061401 C48.63923734 66.6615389 45.88410538 69.40891368 43.12890625 72.15625 C41.21027144 74.07245895 39.29239314 75.98942438 37.37449646 77.90637207 C32.85766023 82.42011384 28.33828351 86.93130285 23.81796354 91.4415555 C18.66717555 96.58112346 13.5192641 101.72356858 8.37157929 106.86624432 C-2.20744076 117.43484273 -12.79002554 127.99986497 -23.375 138.5625 C-25.34367466 137.35454845 -25.34367466 137.35454845 -27.375 135.5625 C-27.87557125 133.41970539 -27.87557125 133.41970539 -27.87620544 130.88972473 C-27.88603958 129.9295343 -27.89587372 128.96934387 -27.90600586 127.98005676 C-27.89633789 126.92807602 -27.88666992 125.87609528 -27.87670898 124.79223633 C-27.88211197 123.68298798 -27.88751495 122.57373962 -27.89308167 121.43087769 C-27.90562152 117.75182674 -27.88903685 114.07355061 -27.87109375 110.39453125 C-27.87124867 107.83965514 -27.87273648 105.28477879 -27.87550354 102.72990417 C-27.87689009 97.36726646 -27.8647242 92.00490288 -27.84155273 86.64233398 C-27.81500959 80.45696045 -27.81317361 74.27196237 -27.8249411 68.08655149 C-27.83575651 62.12620668 -27.82939645 56.16597564 -27.81538582 50.20563316 C-27.81087605 47.67515137 -27.81053036 45.14465857 -27.81445122 42.6141758 C-27.8173713 39.06913509 -27.8008146 35.52470036 -27.77905273 31.97973633 C-27.78355438 30.93787674 -27.78805603 29.89601715 -27.79269409 28.82258606 C-27.70730616 20.42322691 -26.12358015 13.4483113 -20.20703125 7.171875 C-14.05370073 1.76639062 -8.02569848 0.11532742 0 0 Z " fill="#22A883" transform="translate(35.375,3.4375)"/>
<path d="M0 0 C0.84755859 0.00322266 1.69511719 0.00644531 2.56835938 0.00976562 C3.44943359 0.01814453 4.33050781 0.02652344 5.23828125 0.03515625 C6.57729492 0.04192383 6.57729492 0.04192383 7.94335938 0.04882812 C10.14590112 0.06060642 12.34830724 0.07705461 14.55078125 0.09765625 C15.49197609 9.60509417 16.12977969 19.11450097 16.48828125 28.66015625 C16.52764423 29.7075617 16.52764423 29.7075617 16.56780243 30.77612686 C17.10371092 46.97829821 17.12968865 61.54946898 5.67497253 74.24577332 C-1.04939472 81.02342883 -8.59238155 86.71597871 -16.44921875 92.09765625 C-17.43921875 93.08765625 -17.43921875 93.08765625 -18.44921875 94.09765625 C-18.56529745 83.80523912 -18.65402773 73.51297887 -18.70827961 63.22003937 C-18.73432386 58.44007675 -18.76962684 53.66056344 -18.82641602 48.88085938 C-18.88092108 44.26427319 -18.91067817 39.64811797 -18.92360497 35.03123474 C-18.93281177 33.27381104 -18.95079071 31.51640973 -18.97786903 29.75917053 C-19.22381844 13.13028761 -19.22381844 13.13028761 -14.83097839 7.49182129 C-10.28713355 2.90718195 -6.704412 -0.04499605 0 0 Z " fill="#38C991" transform="translate(29.44921875,6.90234375)"/>
<path d="M0 0 C1.20527344 -0.0103125 2.41054687 -0.020625 3.65234375 -0.03125 C7.77723048 0.61134404 9.21204291 1.46510288 12.0625 4.5 C12.56684678 7.41867823 12.74770767 9.75890317 12.70947266 12.67749023 C12.72261505 13.90989944 12.72261505 13.90989944 12.73602295 15.16720581 C12.75801879 17.88154002 12.74346295 20.59424315 12.7265625 23.30859375 C12.72993092 25.19662285 12.73478376 27.08464983 12.74105835 28.97267151 C12.74843018 32.92966354 12.73771546 36.88609117 12.71435547 40.84301758 C12.68588694 45.91204299 12.70225736 50.97974371 12.73221779 56.04872036 C12.75029909 59.94788057 12.74452859 63.84672756 12.73157883 67.74589729 C12.7282461 69.61458557 12.73232722 71.48330239 12.74397659 73.35195732 C12.75669707 75.9664407 12.73729245 78.57879052 12.70947266 81.19311523 C12.71959381 81.96366745 12.72971497 82.73421967 12.74014282 83.52812195 C12.66190704 87.502835 12.20579621 89.31776629 9.71932983 92.47987366 C6.43856197 94.97441264 4.64780591 95.14363341 0.5625 95.0625 C-1.09265625 95.06443359 -1.09265625 95.06443359 -2.78125 95.06640625 C-6.71597281 94.36029882 -8.19358685 93.40821151 -10.9375 90.5 C-11.4363737 87.54657657 -11.6126632 85.167298 -11.56860352 82.21484375 C-11.57933647 80.96539474 -11.57933647 80.96539474 -11.59028625 79.69070435 C-11.60718624 76.93907722 -11.58776387 74.18907641 -11.56640625 71.4375 C-11.56723483 69.52465683 -11.56969381 67.61181373 -11.57371521 65.69897461 C-11.5765741 61.69069987 -11.56186318 57.68298364 -11.53442383 53.67480469 C-11.5003409 48.53631935 -11.50635839 43.39883282 -11.5250864 38.26029968 C-11.53565381 34.31058424 -11.52672093 30.3611013 -11.51170158 26.41140747 C-11.50651741 24.51678152 -11.50700443 22.62213131 -11.51324654 20.72750854 C-11.51869564 18.07952648 -11.4983343 15.43297528 -11.47094727 12.78515625 C-11.47747314 12.00165802 -11.48399902 11.21815979 -11.49072266 10.41091919 C-11.42906083 6.90568735 -11.21343493 4.87494711 -9.10899353 2.01538086 C-6.02992154 -0.13335534 -3.72134396 -0.03177241 0 0 Z " fill="#35BB89" transform="translate(149.9375,63.5)"/>
<path d="M0 0 C2.91930247 1.44531219 4.76091642 3.02875042 7.07453918 5.31587219 C7.91503311 6.14045425 8.75552704 6.96503632 9.62149048 7.81460571 C10.51438278 8.7072966 11.40727509 9.59998749 12.32722473 10.51972961 C13.71496346 11.89604805 13.71496346 11.89604805 15.1307373 13.3001709 C17.0833643 15.23938048 19.02998484 17.18439368 20.97297668 19.133255 C23.46241813 21.6286055 25.9696627 24.10518326 28.48214436 26.57730579 C30.8794419 28.94254131 33.25845646 31.32585712 35.63972473 33.70722961 C36.99424492 35.03715691 36.99424492 35.03715691 38.37612915 36.39395142 C39.20086227 37.22798996 40.0255954 38.0620285 40.87532043 38.92134094 C41.6063649 39.65033096 42.33740936 40.37932098 43.09060669 41.13040161 C44.97556586 43.76587272 45.0607047 45.13893985 44.65144348 48.31269836 C43.60554504 50.09809875 43.60554504 50.09809875 41.65144348 51.31269836 C39.14553477 51.62340251 36.89261851 51.75704482 34.38581848 51.74629211 C33.67419556 51.75153397 32.96257263 51.75677582 32.22938538 51.76217651 C30.723112 51.76859676 29.21678849 51.7672596 27.71052551 51.75874329 C25.42297572 51.75027805 23.13796238 51.7789155 20.85066223 51.81074524 C19.38321506 51.81235872 17.91576351 51.81177691 16.44831848 51.80879211 C15.77202393 51.82002609 15.09572937 51.83126007 14.39894104 51.84283447 C6.54933933 51.72962958 1.80507041 47.84885019 -3.55558777 42.46894836 C-4.47146667 41.55242493 -5.38734558 40.63590149 -6.33097839 39.69160461 C-7.02791809 38.98221741 -7.02791809 38.98221741 -7.73893738 38.25849915 C-9.16644206 36.80722314 -10.60699795 35.36991688 -12.04972839 33.93379211 C-21.2441131 24.667729 -21.2441131 24.667729 -21.46965027 19.58222961 C-19.74536821 14.55357426 -16.20931748 11.60805385 -12.41105652 8.00019836 C-11.66920105 7.27252258 -10.92734558 6.5448468 -10.16300964 5.79512024 C-3.23321373 -0.94619528 -3.23321373 -0.94619528 0 0 Z " fill="#129C7E" transform="translate(61.34855651855469,106.68730163574219)"/>
<path d="M0 0 C1.96453125 -0.01546875 1.96453125 -0.01546875 3.96875 -0.03125 C8.09292382 0.58920093 9.00557718 1.24664422 11.5 4.5 C12.0146637 7.42175293 12.0146637 7.42175293 12.03344727 10.85742188 C12.0492836 12.14555786 12.06511993 13.43369385 12.08143616 14.76086426 C12.07759484 16.16349653 12.07255588 17.56612595 12.06640625 18.96875 C12.07164234 20.41077069 12.07791877 21.85278794 12.08518982 23.2947998 C12.09559077 26.31437314 12.09103713 29.33347513 12.07641602 32.35302734 C12.05922079 36.22052844 12.08273142 40.08654488 12.11790562 43.95388031 C12.13987694 46.93082502 12.13843916 49.90741422 12.1301403 52.88441467 C12.12932075 54.31016164 12.13618515 55.73593469 12.15091133 57.16160583 C12.16834847 59.15519794 12.15050029 61.14900412 12.13110352 63.14257812 C12.12966087 64.84323425 12.12966087 64.84323425 12.12818909 66.57824707 C11.5 69.5 11.5 69.5 9.15782166 71.86413574 C5.88982064 73.87555967 3.81699353 74.03567284 0 74 C-1.1034375 74.0103125 -2.206875 74.020625 -3.34375 74.03125 C-7.23391061 73.37647049 -8.73487917 72.29104322 -11.5 69.5 C-12.12818909 66.57824707 -12.12818909 66.57824707 -12.13110352 63.14257812 C-12.14363663 61.85444214 -12.15616974 60.56630615 -12.16908264 59.23913574 C-12.15681433 57.83649688 -12.14339431 56.43386769 -12.12890625 55.03125 C-12.12973516 53.58923158 -12.13219537 52.14721325 -12.13621521 50.7052002 C-12.13907179 47.68550111 -12.12438744 44.66654434 -12.09692383 41.64697266 C-12.06283976 37.77960048 -12.06885971 33.9135554 -12.0875864 30.04611969 C-12.09816385 27.06916273 -12.08921213 24.09251367 -12.07420158 21.11558533 C-12.06902467 19.68986425 -12.06949565 18.26411094 -12.07574654 16.83839417 C-12.08120658 14.84469435 -12.05795604 12.85097851 -12.03344727 10.85742188 C-12.02724869 9.72365112 -12.02105011 8.58988037 -12.0146637 7.42175293 C-10.7959226 0.50294285 -6.27425272 -0.04940356 0 0 Z " fill="#21A580" transform="translate(122.5,84.5)"/>
<path d="M0 0 C1.03519775 -0.02211548 1.03519775 -0.02211548 2.09130859 -0.04467773 C5.31119037 0.0211387 7.243836 0.26571054 9.81207275 2.26544189 C12.00175313 5.03986269 12.13757959 6.38335685 12.17089844 9.88183594 C12.19061707 10.94263367 12.21033569 12.0034314 12.23065186 13.09637451 C12.23188049 14.23503967 12.23310913 15.37370483 12.234375 16.546875 C12.25091125 17.71760559 12.26744751 18.88833618 12.28448486 20.09454346 C12.33307081 23.83391511 12.35436033 27.57287976 12.375 31.3125 C12.40315066 33.84767684 12.43307679 36.38283464 12.46484375 38.91796875 C12.53883281 45.13273835 12.59041324 51.34739299 12.625 57.5625 C15.48346007 54.73347124 18.33594984 51.89849221 21.1875 49.0625 C21.98736328 48.27101562 22.78722656 47.47953125 23.61132812 46.6640625 C27.90429861 42.38861434 32.02173165 38.04129559 35.97134399 33.44769287 C38.69346328 30.3444357 41.59649254 27.42857797 44.51171875 24.5078125 C45.13601273 23.88019012 45.7603067 23.25256775 46.40351868 22.60592651 C47.70887306 21.29555684 49.01554085 19.98649432 50.32348633 18.67871094 C52.3233699 16.67661809 54.31508769 14.66662576 56.30664062 12.65625 C57.58284416 11.37711593 58.85952008 10.09845294 60.13671875 8.8203125 C61.02432137 7.92193161 61.02432137 7.92193161 61.92985535 7.00540161 C62.48756119 6.4507724 63.04526703 5.89614319 63.61987305 5.32470703 C64.10505905 4.83809601 64.59024506 4.35148499 65.09013367 3.85012817 C70.39601955 -0.60107908 76.4153872 0.15874802 83 0.125 C84.1240625 0.09212891 85.248125 0.05925781 86.40625 0.02539062 C95.65850744 -0.03475998 95.65850744 -0.03475998 99.34765625 2.96484375 C102.71127918 6.8015663 102.71127918 6.8015663 102.625 9.5625 C100.26751571 14.3212625 96.76231506 17.66684003 93.015625 21.33203125 C92.37059021 21.97186447 91.72555542 22.61169769 91.06097412 23.2709198 C89.00370019 25.3104479 86.93986857 27.34316354 84.875 29.375 C82.82525123 31.39693835 80.77705403 33.4203868 78.73187256 35.44694519 C77.46245994 36.70430992 76.19038714 37.95899727 74.9151001 39.21040344 C71.96789866 42.12500399 69.14128321 45.08341258 66.44926453 48.23625183 C62.46715394 52.80818205 58.23144872 57.08940227 53.93579102 61.36523438 C53.09596176 62.20520966 52.25613251 63.04518494 51.39085388 63.91061401 C48.63923734 66.6615389 45.88410538 69.40891368 43.12890625 72.15625 C41.21027144 74.07245895 39.29239314 75.98942438 37.37449646 77.90637207 C32.85766023 82.42011384 28.33828351 86.93130285 23.81796354 91.4415555 C18.66717555 96.58112346 13.5192641 101.72356858 8.37157929 106.86624432 C-2.20744076 117.43484273 -12.79002554 127.99986497 -23.375 138.5625 C-25.34367466 137.35454845 -25.34367466 137.35454845 -27.375 135.5625 C-27.87557125 133.41970539 -27.87557125 133.41970539 -27.87620544 130.88972473 C-27.88603958 129.9295343 -27.89587372 128.96934387 -27.90600586 127.98005676 C-27.89633789 126.92807602 -27.88666992 125.87609528 -27.87670898 124.79223633 C-27.88211197 123.68298798 -27.88751495 122.57373962 -27.89308167 121.43087769 C-27.90562152 117.75182674 -27.88903685 114.07355061 -27.87109375 110.39453125 C-27.87124867 107.83965514 -27.87273648 105.28477879 -27.87550354 102.72990417 C-27.87689009 97.36726646 -27.8647242 92.00490288 -27.84155273 86.64233398 C-27.81500959 80.45696045 -27.81317361 74.27196237 -27.8249411 68.08655149 C-27.83575651 62.12620668 -27.82939645 56.16597564 -27.81538582 50.20563316 C-27.81087605 47.67515137 -27.81053036 45.14465857 -27.81445122 42.6141758 C-27.8173713 39.06913509 -27.8008146 35.52470036 -27.77905273 31.97973633 C-27.78355438 30.93787674 -27.78805603 29.89601715 -27.79269409 28.82258606 C-27.70730616 20.42322691 -26.12358015 13.4483113 -20.20703125 7.171875 C-14.05370073 1.76639062 -8.02569848 0.11532742 0 0 Z M-20.125 10.375 C-25.25164826 17.63775171 -25.80501773 23.2052922 -25.71557617 31.91381836 C-25.71601425 33.03650116 -25.71645233 34.15918396 -25.71690369 35.31588745 C-25.71482053 39.01155231 -25.69151098 42.70675854 -25.66796875 46.40234375 C-25.66237114 48.970665 -25.65810182 51.53898946 -25.65510559 54.10731506 C-25.64483757 60.16684022 -25.62121469 66.22617727 -25.59105712 72.28563172 C-25.55745595 79.1876952 -25.54101279 86.08976675 -25.52597082 92.99189174 C-25.49466325 107.18218209 -25.44193858 121.37233523 -25.375 135.5625 C-22.24735899 134.86229683 -20.64693959 134.20665163 -18.38671875 131.90234375 C-17.57364258 131.0815332 -17.57364258 131.0815332 -16.74414062 130.24414062 C-16.18919922 129.66857422 -15.63425781 129.09300781 -15.0625 128.5 C-14.51916016 127.95150391 -13.97582031 127.40300781 -13.41601562 126.83789062 C-10.5964829 123.96509636 -7.89645675 121.02525375 -5.28573608 117.96168518 C-0.89635548 112.93194469 3.83113517 108.26992631 8.58349609 103.58569336 C9.56838396 102.61093327 10.55299521 101.63589362 11.53735352 100.66059875 C13.64173697 98.57617885 15.74747515 96.49314075 17.85413742 94.41102409 C21.18683554 91.11597569 24.51282867 87.81421476 27.83731079 84.51087952 C28.40036875 83.95145894 28.96342671 83.39203837 29.54354703 82.81566566 C30.69387213 81.67274453 31.84418155 80.52980762 32.9944756 79.38685524 C40.723818 71.70736591 48.45747415 64.0323576 56.20947266 56.37573242 C61.45493678 51.19470286 66.68968357 46.00310699 71.91230834 40.7990523 C74.67154327 38.05048398 77.4359704 35.30763366 80.21363449 32.57768059 C82.82200828 30.0139611 85.41603754 27.4365636 87.99980164 24.84805107 C89.40054071 23.45209787 90.81617242 22.07113827 92.23220825 20.69070435 C97.24997594 15.87664619 97.24997594 15.87664619 99.88638306 9.63453674 C99.8572341 6.64556093 99.8572341 6.64556093 98.52105713 4.70703125 C91.39996683 0.40847386 80.57929532 0.78044981 72.66137695 2.26806641 C59.33007316 5.79826936 48.69678586 20.6891144 39.8157959 30.44909668 C36.55583125 33.99899088 33.2119523 37.46797373 29.875 40.9453125 C23.3753551 47.74251138 16.97140457 54.62222017 10.625 61.5625 C10.61469254 60.86536896 10.60438507 60.16823792 10.59376526 59.44998169 C10.49587547 52.88712134 10.39337326 46.32435125 10.28566074 39.76164436 C10.23044531 36.38751633 10.17702757 33.0133796 10.12768555 29.63916016 C10.07010333 25.76195734 10.00637434 21.8848977 9.94140625 18.0078125 C9.92469376 16.79320343 9.90798126 15.57859436 9.89076233 14.32717896 C9.8608445 12.64566238 9.8608445 12.64566238 9.83032227 10.93017578 C9.80700584 9.44458664 9.80700584 9.44458664 9.78321838 7.9289856 C9.77692022 5.54421457 9.77692022 5.54421457 8.625 3.5625 C5.60318586 3.45382337 2.58533673 3.37487246 -0.4375 3.3125 C-1.28505859 3.27898438 -2.13261719 3.24546875 -3.00585938 3.2109375 C-10.53790325 3.0946125 -14.75658215 4.88457265 -20.125 10.375 Z " fill="#041612" transform="translate(35.375,3.4375)"/>
<path d="M0 0 C2.91420557 2.18859981 3.89287711 3.36101587 4.50170898 6.99267578 C4.49985596 8.1320459 4.49800293 9.27141602 4.49609375 10.4453125 C4.49673828 11.68667969 4.49738281 12.92804688 4.49804688 14.20703125 C4.47806641 15.49996094 4.45808594 16.79289062 4.4375 18.125 C4.44458984 19.42566406 4.45167969 20.72632813 4.45898438 22.06640625 C4.41058608 29.22190758 4.41058608 29.22190758 4 32 C3.01 32.66 2.02 33.32 1 34 C-1.87754815 31.34630367 -4.72356651 28.66285823 -7.54492188 25.94946289 C-8.97806662 24.58340664 -10.43424005 23.24164244 -11.890625 21.90039062 C-19.62726467 14.41242866 -19.62726467 14.41242866 -19.7265625 9.03125 C-19.42655916 6.07049472 -18.81659196 4.65434639 -17.375 1.9375 C-11.99120424 -1.15319756 -6.05490865 -1.04643833 0 0 Z " fill="#128F76" transform="translate(102,108)"/>
<path d="M0 0 C1.20527344 -0.0103125 2.41054687 -0.020625 3.65234375 -0.03125 C7.77723048 0.61134404 9.21204291 1.46510288 12.0625 4.5 C12.56684678 7.41867823 12.74770767 9.75890317 12.70947266 12.67749023 C12.72261505 13.90989944 12.72261505 13.90989944 12.73602295 15.16720581 C12.75801879 17.88154002 12.74346295 20.59424315 12.7265625 23.30859375 C12.72993092 25.19662285 12.73478376 27.08464983 12.74105835 28.97267151 C12.74843018 32.92966354 12.73771546 36.88609117 12.71435547 40.84301758 C12.68588694 45.91204299 12.70225736 50.97974371 12.73221779 56.04872036 C12.75029909 59.94788057 12.74452859 63.84672756 12.73157883 67.74589729 C12.7282461 69.61458557 12.73232722 71.48330239 12.74397659 73.35195732 C12.75669707 75.9664407 12.73729245 78.57879052 12.70947266 81.19311523 C12.71959381 81.96366745 12.72971497 82.73421967 12.74014282 83.52812195 C12.66190704 87.502835 12.20579621 89.31776629 9.71932983 92.47987366 C6.43856197 94.97441264 4.64780591 95.14363341 0.5625 95.0625 C-1.09265625 95.06443359 -1.09265625 95.06443359 -2.78125 95.06640625 C-6.71597281 94.36029882 -8.19358685 93.40821151 -10.9375 90.5 C-11.4363737 87.54657657 -11.6126632 85.167298 -11.56860352 82.21484375 C-11.57933647 80.96539474 -11.57933647 80.96539474 -11.59028625 79.69070435 C-11.60718624 76.93907722 -11.58776387 74.18907641 -11.56640625 71.4375 C-11.56723483 69.52465683 -11.56969381 67.61181373 -11.57371521 65.69897461 C-11.5765741 61.69069987 -11.56186318 57.68298364 -11.53442383 53.67480469 C-11.5003409 48.53631935 -11.50635839 43.39883282 -11.5250864 38.26029968 C-11.53565381 34.31058424 -11.52672093 30.3611013 -11.51170158 26.41140747 C-11.50651741 24.51678152 -11.50700443 22.62213131 -11.51324654 20.72750854 C-11.51869564 18.07952648 -11.4983343 15.43297528 -11.47094727 12.78515625 C-11.47747314 12.00165802 -11.48399902 11.21815979 -11.49072266 10.41091919 C-11.42906083 6.90568735 -11.21343493 4.87494711 -9.10899353 2.01538086 C-6.02992154 -0.13335534 -3.72134396 -0.03177241 0 0 Z M-8.9375 4.5 C-9.03795053 7.17250067 -9.07366649 9.81918581 -9.06689453 12.4921875 C-9.06864685 13.3295343 -9.07039917 14.1668811 -9.07220459 15.02960205 C-9.07662401 17.81142214 -9.0736848 20.59317921 -9.0703125 23.375 C-9.07098551 25.29931653 -9.07195552 27.22363298 -9.07321167 29.14794922 C-9.07468877 33.18653165 -9.07253371 37.225092 -9.06787109 41.26367188 C-9.0621738 46.45268511 -9.06545274 51.64164663 -9.07144356 56.83065796 C-9.07504886 60.8059122 -9.07391073 64.78115409 -9.07131577 68.75640869 C-9.07064641 70.6702678 -9.07147522 72.58412802 -9.07379532 74.49798584 C-9.07632133 77.1679585 -9.07248198 79.8378462 -9.06689453 82.5078125 C-9.06891876 83.30680969 -9.07094299 84.10580688 -9.07302856 84.92901611 C-9.39367009 88.51064204 -9.39367009 88.51064204 -7.9375 91.5 C-5.27927343 91.62658222 -2.65862576 91.68520214 0 91.6875 C0.74185547 91.69974609 1.48371094 91.71199219 2.24804688 91.72460938 C4.18763629 91.72988478 6.1267371 91.62188902 8.0625 91.5 C10.59058963 88.97191037 10.30603379 87.39130085 10.33355713 83.94262695 C10.32950867 83.16749756 10.32546021 82.39236816 10.32128906 81.59375 C10.3247937 80.77737061 10.32829834 79.96099121 10.33190918 79.11987305 C10.34073348 76.41316297 10.33487493 73.70671288 10.328125 71 C10.32947145 69.12434845 10.33141181 67.24869723 10.33392334 65.37304688 C10.33687555 61.43876834 10.33257386 57.50458051 10.32324219 53.5703125 C10.3118476 48.51925436 10.31840656 43.46840874 10.33038712 38.4173584 C10.33760311 34.54327789 10.33531899 30.66924803 10.33013153 26.79516602 C10.32879431 24.93237279 10.33044527 23.06957502 10.33509064 21.20678711 C10.34015161 18.60648358 10.33245181 16.00652755 10.32128906 13.40625 C10.32533752 12.63112061 10.32938599 11.85599121 10.33355713 11.05737305 C10.44831171 6.81839439 10.44831171 6.81839439 8.0625 3.5 C5.33552777 3.32829097 2.72343532 3.2675432 0 3.3125 C-1.11858398 3.3134668 -1.11858398 3.3134668 -2.25976562 3.31445312 C-5.89767633 3.01177469 -5.89767633 3.01177469 -8.9375 4.5 Z " fill="#020908" transform="translate(149.9375,63.5)"/>
<path d="M0 0 C2.91930247 1.44531219 4.76091642 3.02875042 7.07453918 5.31587219 C7.91503311 6.14045425 8.75552704 6.96503632 9.62149048 7.81460571 C10.51438278 8.7072966 11.40727509 9.59998749 12.32722473 10.51972961 C13.71496346 11.89604805 13.71496346 11.89604805 15.1307373 13.3001709 C17.0833643 15.23938048 19.02998484 17.18439368 20.97297668 19.133255 C23.46241813 21.6286055 25.9696627 24.10518326 28.48214436 26.57730579 C30.8794419 28.94254131 33.25845646 31.32585712 35.63972473 33.70722961 C36.99424492 35.03715691 36.99424492 35.03715691 38.37612915 36.39395142 C39.20086227 37.22798996 40.0255954 38.0620285 40.87532043 38.92134094 C41.6063649 39.65033096 42.33740936 40.37932098 43.09060669 41.13040161 C44.97556586 43.76587272 45.0607047 45.13893985 44.65144348 48.31269836 C43.60554504 50.09809875 43.60554504 50.09809875 41.65144348 51.31269836 C39.14553477 51.62340251 36.89261851 51.75704482 34.38581848 51.74629211 C33.67419556 51.75153397 32.96257263 51.75677582 32.22938538 51.76217651 C30.723112 51.76859676 29.21678849 51.7672596 27.71052551 51.75874329 C25.42297572 51.75027805 23.13796238 51.7789155 20.85066223 51.81074524 C19.38321506 51.81235872 17.91576351 51.81177691 16.44831848 51.80879211 C15.77202393 51.82002609 15.09572937 51.83126007 14.39894104 51.84283447 C6.54933933 51.72962958 1.80507041 47.84885019 -3.55558777 42.46894836 C-4.47146667 41.55242493 -5.38734558 40.63590149 -6.33097839 39.69160461 C-7.02791809 38.98221741 -7.02791809 38.98221741 -7.73893738 38.25849915 C-9.16644206 36.80722314 -10.60699795 35.36991688 -12.04972839 33.93379211 C-21.2441131 24.667729 -21.2441131 24.667729 -21.46965027 19.58222961 C-19.74536821 14.55357426 -16.20931748 11.60805385 -12.41105652 8.00019836 C-11.66920105 7.27252258 -10.92734558 6.5448468 -10.16300964 5.79512024 C-3.23321373 -0.94619528 -3.23321373 -0.94619528 0 0 Z M-11.66105652 9.37519836 C-12.3062323 10.03197571 -12.95140808 10.68875305 -13.61613464 11.36543274 C-14.22521667 12.01963196 -14.83429871 12.67383118 -15.46183777 13.34785461 C-16.29388733 14.235495 -16.29388733 14.235495 -17.14274597 15.1410675 C-18.95843415 18.41107082 -18.84880583 20.63366226 -18.34855652 24.31269836 C-16.73505662 26.55508059 -15.36694463 28.14449906 -13.38761902 29.99238586 C-12.88185333 30.49061859 -12.37608765 30.98885132 -11.85499573 31.50218201 C-10.24358652 33.0811911 -8.60924244 34.63389307 -6.97355652 36.18769836 C-5.88086943 37.25382933 -4.78970535 38.32152362 -3.70011902 39.39082336 C4.09444784 46.99005039 4.09444784 46.99005039 14.72175598 48.41035461 C15.5179837 48.40893967 16.31421143 48.40752472 17.13456726 48.40606689 C19.68189728 48.40046181 22.22913995 48.3879085 24.77644348 48.37519836 C26.50170263 48.37018402 28.22696315 48.365621 29.95222473 48.36152649 C34.18533139 48.35049074 38.41837262 48.33322273 42.65144348 48.31269836 C42.14369673 44.00283938 40.88618514 42.04042905 37.85359192 38.98139954 C37.04895508 38.16092636 36.24431824 37.34045319 35.41529846 36.49511719 C34.53932007 35.62409866 33.66334167 34.75308014 32.76081848 33.85566711 C31.86405396 32.95270401 30.96728943 32.04974091 30.04335022 31.11941528 C28.14490734 29.21386927 26.24281892 27.3130261 24.33357239 25.41841125 C21.88914428 22.99118954 19.46567908 20.5441823 17.0474968 18.09084606 C14.73455357 15.75065578 12.4030336 13.4291428 10.07331848 11.10566711 C9.20543701 10.22452744 8.33755554 9.34338776 7.44337463 8.43554688 C6.62612915 7.6308345 5.80888367 6.82612213 4.96687317 5.99702454 C4.25263184 5.28374496 3.5383905 4.57046539 2.80250549 3.83557129 C-3.61237813 -0.70593078 -7.46377606 4.78888058 -11.66105652 9.37519836 Z " fill="#031612" transform="translate(61.34855651855469,106.68730163574219)"/>
<path d="M0 0 C1.96453125 -0.01546875 1.96453125 -0.01546875 3.96875 -0.03125 C8.09292382 0.58920093 9.00557718 1.24664422 11.5 4.5 C12.0146637 7.42175293 12.0146637 7.42175293 12.03344727 10.85742188 C12.0492836 12.14555786 12.06511993 13.43369385 12.08143616 14.76086426 C12.07759484 16.16349653 12.07255588 17.56612595 12.06640625 18.96875 C12.07164234 20.41077069 12.07791877 21.85278794 12.08518982 23.2947998 C12.09559077 26.31437314 12.09103713 29.33347513 12.07641602 32.35302734 C12.05922079 36.22052844 12.08273142 40.08654488 12.11790562 43.95388031 C12.13987694 46.93082502 12.13843916 49.90741422 12.1301403 52.88441467 C12.12932075 54.31016164 12.13618515 55.73593469 12.15091133 57.16160583 C12.16834847 59.15519794 12.15050029 61.14900412 12.13110352 63.14257812 C12.12966087 64.84323425 12.12966087 64.84323425 12.12818909 66.57824707 C11.5 69.5 11.5 69.5 9.15782166 71.86413574 C5.88982064 73.87555967 3.81699353 74.03567284 0 74 C-1.1034375 74.0103125 -2.206875 74.020625 -3.34375 74.03125 C-7.23391061 73.37647049 -8.73487917 72.29104322 -11.5 69.5 C-12.12818909 66.57824707 -12.12818909 66.57824707 -12.13110352 63.14257812 C-12.14363663 61.85444214 -12.15616974 60.56630615 -12.16908264 59.23913574 C-12.15681433 57.83649688 -12.14339431 56.43386769 -12.12890625 55.03125 C-12.12973516 53.58923158 -12.13219537 52.14721325 -12.13621521 50.7052002 C-12.13907179 47.68550111 -12.12438744 44.66654434 -12.09692383 41.64697266 C-12.06283976 37.77960048 -12.06885971 33.9135554 -12.0875864 30.04611969 C-12.09816385 27.06916273 -12.08921213 24.09251367 -12.07420158 21.11558533 C-12.06902467 19.68986425 -12.06949565 18.26411094 -12.07574654 16.83839417 C-12.08120658 14.84469435 -12.05795604 12.85097851 -12.03344727 10.85742188 C-12.02724869 9.72365112 -12.02105011 8.58988037 -12.0146637 7.42175293 C-10.7959226 0.50294285 -6.27425272 -0.04940356 0 0 Z M-8.5 3.5 C-9.88131285 6.2626257 -9.62721691 8.49463402 -9.62939453 11.58618164 C-9.63254669 12.86413101 -9.63569885 14.14208038 -9.63894653 15.45875549 C-9.63715689 16.85922276 -9.63510597 18.25968972 -9.6328125 19.66015625 C-9.63348579 21.08979814 -9.63445602 22.51943992 -9.63571167 23.94908142 C-9.637187 26.94596445 -9.63503906 29.94281769 -9.63037109 32.93969727 C-9.62466874 36.78908942 -9.62795704 40.63841194 -9.63394356 44.48780155 C-9.63754923 47.43965687 -9.63641065 50.39149556 -9.63381577 53.34335136 C-9.63314678 54.76318813 -9.63397393 56.18302638 -9.63629532 57.6028614 C-9.63882246 59.58297829 -9.63429071 61.56310045 -9.62939453 63.54321289 C-9.62859894 64.67191299 -9.62780334 65.8006131 -9.62698364 66.96351624 C-9.78751667 69.4361056 -9.78751667 69.4361056 -8.5 70.5 C-5.65664952 70.59986975 -2.84302837 70.63877881 0 70.625 C1.19689453 70.63080078 1.19689453 70.63080078 2.41796875 70.63671875 C6.2683932 71.0089961 6.2683932 71.0089961 9.5 69.5 C9.59935148 67.48049791 9.62799508 65.45749085 9.62939453 63.43554688 C9.63254669 62.13750122 9.63569885 60.83945557 9.63894653 59.5020752 C9.63715675 58.07429979 9.6351058 56.64652469 9.6328125 55.21875 C9.63348558 53.76525862 9.63445564 52.31176736 9.63571167 50.85827637 C9.63718846 47.80833873 9.6350347 44.75843034 9.63037109 41.70849609 C9.6246738 37.79069441 9.62795291 33.87296122 9.63394356 29.95516205 C9.63754969 26.95269246 9.63641035 23.95023923 9.63381577 20.94776917 C9.63314664 19.50281262 9.63397442 18.05785461 9.63629532 16.61289978 C9.63882265 14.59675117 9.63429052 12.58059738 9.62939453 10.56445312 C9.62859894 9.41497192 9.62780334 8.26549072 9.62698364 7.08117676 C9.79298088 4.56914494 9.79298088 4.56914494 8.5 3.5 C5.63732433 3.42674832 2.799281 3.40761795 -0.0625 3.4375 C-0.86880859 3.44201172 -1.67511719 3.44652344 -2.50585938 3.45117188 C-4.50393756 3.46299482 -6.50197783 3.48093086 -8.5 3.5 Z " fill="#030F0D" transform="translate(122.5,84.5)"/>
<path d="M0 0 C0.33 0 0.66 0 1 0 C1 38.28 1 76.56 1 116 C2.65 115.01 4.3 114.02 6 113 C7.32608822 112.31903578 8.65686601 111.64669414 10 111 C9.07347299 112.17539996 8.13336613 113.34010577 7.1875 114.5 C6.66542969 115.1496875 6.14335937 115.799375 5.60546875 116.46875 C4 118 4 118 1 118 C-1 116 -1 116 -1.24888897 113.96070004 C-1.2483442 113.11579289 -1.24779943 112.27088575 -1.24723816 111.40037537 C-1.25143265 110.43144348 -1.25562714 109.4625116 -1.25994873 108.46421814 C-1.25432922 107.39764481 -1.24870972 106.33107147 -1.24291992 105.23217773 C-1.24481827 104.11183136 -1.24671661 102.99148499 -1.24867249 101.83718872 C-1.25238923 98.11925344 -1.24166385 94.40151178 -1.23046875 90.68359375 C-1.22927743 88.11051964 -1.22882369 85.5374451 -1.2290802 82.96437073 C-1.22751382 77.56646819 -1.21945344 72.16863616 -1.20581055 66.77075195 C-1.19007666 60.5223062 -1.18481269 54.27392194 -1.1855461 48.0254578 C-1.18615559 42.02293898 -1.18095021 36.02044536 -1.17275429 30.01793098 C-1.16956097 27.45933212 -1.16759868 24.90073142 -1.16686058 22.34213066 C-1.1647045 18.77419779 -1.15597645 15.2063438 -1.14526367 11.63842773 C-1.14571686 10.56983017 -1.14617004 9.5012326 -1.14663696 8.4002533 C-1.14237198 7.43414124 -1.13810699 6.46802917 -1.13371277 5.47264099 C-1.13203692 4.62811088 -1.13036108 3.78358076 -1.12863445 2.91345882 C-1 1 -1 1 0 0 Z " fill="#000405" transform="translate(9,23)"/>
<path d="M0 0 C0.33 0 0.66 0 1 0 C1.33 24.75 1.66 49.5 2 75 C11.9 65.1 21.8 55.2 32 45 C32.99 45.495 32.99 45.495 34 46 C33.09644775 46.89307861 32.19289551 47.78615723 31.26196289 48.70629883 C27.91544141 52.01665817 24.57551216 55.33360104 21.23754883 58.65258789 C19.79110206 60.08896847 18.34286651 61.52355004 16.89282227 62.95629883 C14.81054931 65.01435102 12.73476552 67.07875753 10.66015625 69.14453125 C10.00910416 69.78526077 9.35805206 70.4259903 8.68727112 71.08613586 C7.78645058 71.98672981 7.78645058 71.98672981 6.86743164 72.90551758 C6.33670547 73.43180252 5.80597931 73.95808746 5.25917053 74.50032043 C2.35226771 77.96245892 2.78479385 82.23451287 2.68359375 86.51171875 C2.66281265 87.23994339 2.64203156 87.96816803 2.62062073 88.71846008 C2.55531254 91.04137875 2.49632763 93.36440906 2.4375 95.6875 C2.39429695 97.26368335 2.35068208 98.83985548 2.30664062 100.41601562 C2.1996504 104.27722975 2.09833039 108.13855603 2 112 C2.66 112 3.32 112 4 112 C4 111.34 4 110.68 4 110 C5.64453125 108.37890625 5.64453125 108.37890625 7.8125 106.5625 C10.31102718 104.45536324 12.7242056 102.34758602 15 100 C15.66 100.33 16.32 100.66 17 101 C14.74141867 103.34546698 12.46623352 105.67412027 10.1875 108 C9.54490234 108.66773438 8.90230469 109.33546875 8.24023438 110.0234375 C7.61826172 110.65507812 6.99628906 111.28671875 6.35546875 111.9375 C5.78465576 112.52402344 5.21384277 113.11054688 4.62573242 113.71484375 C3 115 3 115 0 115 C0 77.05 0 39.1 0 0 Z " fill="#0B685A" transform="translate(10,24)"/>
<path d="M0 0 C0.71607422 -0.02900391 1.43214844 -0.05800781 2.16992188 -0.08789062 C5.51696998 -0.12821651 7.56969333 -0.0665726 10.26495361 2.00665283 C12.4321662 4.78669847 12.57515833 6.14162465 12.60839844 9.63183594 C12.62811707 10.69263367 12.64783569 11.7534314 12.66815186 12.84637451 C12.66938049 13.98503967 12.67060913 15.12370483 12.671875 16.296875 C12.68841125 17.46760559 12.70494751 18.63833618 12.72198486 19.84454346 C12.77057081 23.58391511 12.79186033 27.32287976 12.8125 31.0625 C12.84065066 33.59767684 12.87057679 36.13283464 12.90234375 38.66796875 C12.97633329 44.88277902 13.0258437 51.09736192 13.0625 57.3125 C16.3625 54.0125 19.6625 50.7125 23.0625 47.3125 C23.0625 50.3125 23.0625 50.3125 20.47265625 53.23046875 C19.36440591 54.32807563 18.24815055 55.41764493 17.125 56.5 C16.56103516 57.05880859 15.99707031 57.61761719 15.41601562 58.19335938 C11.21640339 62.3125 11.21640339 62.3125 10.0625 62.3125 C9.7325 42.8425 9.4025 23.3725 9.0625 3.3125 C-7.29203924 2.88155703 -7.29203924 2.88155703 -19.1875 10.625 C-21.23327981 13.76673327 -22.56974134 16.82471541 -23.9375 20.3125 C-24.5975 19.9825 -25.2575 19.6525 -25.9375 19.3125 C-25.59982521 13.90970335 -22.52653575 10.12488776 -18.9375 6.3125 C-12.83024899 1.62259215 -7.68229741 0.10316424 0 0 Z " fill="#020505" transform="translate(34.9375,3.6875)"/>
<path d="M0 0 C2.82333162 0.82797257 4.01908553 1.18330248 5.51416016 3.73730469 C5.89500623 7.8731015 5.29552984 9.72956153 2.74386597 13.02047729 C0.24033847 15.70792926 -2.34927149 18.27408935 -4.98974609 20.82714844 C-5.9536941 21.77989423 -6.91631731 22.7339821 -7.87767029 23.68934631 C-10.4012868 26.19014517 -12.94239815 28.67239468 -15.4876709 31.15112305 C-18.08582993 33.68770663 -20.66691123 36.24153973 -23.24951172 38.79394531 C-28.31176792 43.79201416 -33.39272074 48.77067341 -38.48583984 53.73730469 C-38.48583984 50.73730469 -38.48583984 50.73730469 -36.82104492 48.73193359 C-36.05687256 47.98347168 -35.2927002 47.23500977 -34.50537109 46.46386719 C-33.67070313 45.63886719 -32.83603516 44.81386719 -31.97607422 43.96386719 C-31.09242187 43.10535156 -30.20876953 42.24683594 -29.29833984 41.36230469 C-28.43402344 40.51152344 -27.56970703 39.66074219 -26.67919922 38.78417969 C-24.28648907 36.42997292 -21.88703136 34.08285458 -19.48583984 31.73730469 C-16.57382915 28.88481276 -13.79001398 25.99192487 -11.17333984 22.86230469 C-8.70040764 19.98894145 -6.13491411 17.49141035 -3.23583984 15.04980469 C-0.28683329 12.53514794 1.94665629 10.36215738 3.51416016 6.73730469 C3.51416016 5.41730469 3.51416016 4.09730469 3.51416016 2.73730469 C-0.77631452 2.47315738 -5.06467541 2.31518765 -9.36083984 2.17480469 C-10.56482422 2.09939453 -11.76880859 2.02398437 -13.00927734 1.94628906 C-19.70607216 1.78250875 -23.76172801 2.22042071 -28.86083984 6.76855469 C-30.4295778 8.3991869 -31.97235137 10.05526639 -33.48583984 11.73730469 C-34.89848401 13.1307734 -36.31742163 14.51790139 -37.74365234 15.89746094 C-39.03535419 17.1956213 -40.3244649 18.49636559 -41.61083984 19.79980469 C-42.28115234 20.47462891 -42.95146484 21.14945313 -43.64208984 21.84472656 C-45.25906211 23.47324863 -46.87361806 25.10408202 -48.48583984 26.73730469 C-49.14583984 26.40730469 -49.80583984 26.07730469 -50.48583984 25.73730469 C-35.58074112 7.25340917 -25.26577232 -3.62978811 0 0 Z " fill="#48D694" transform="translate(129.48583984375,6.2626953125)"/>
<path d="M0 0 C2.91420557 2.18859981 3.89287711 3.36101587 4.50170898 6.99267578 C4.49985596 8.1320459 4.49800293 9.27141602 4.49609375 10.4453125 C4.49673828 11.68667969 4.49738281 12.92804688 4.49804688 14.20703125 C4.47806641 15.49996094 4.45808594 16.79289062 4.4375 18.125 C4.44458984 19.42566406 4.45167969 20.72632813 4.45898438 22.06640625 C4.41058608 29.22190758 4.41058608 29.22190758 4 32 C3.01 32.66 2.02 33.32 1 34 C-1.87754815 31.34630367 -4.72356651 28.66285823 -7.54492188 25.94946289 C-8.97806662 24.58340664 -10.43424005 23.24164244 -11.890625 21.90039062 C-19.62726467 14.41242866 -19.62726467 14.41242866 -19.7265625 9.03125 C-19.42655916 6.07049472 -18.81659196 4.65434639 -17.375 1.9375 C-11.99120424 -1.15319756 -6.05490865 -1.04643833 0 0 Z M-16 4 C-16.87919577 8.8630686 -17.12341597 13.22591149 -14.41845703 17.49755859 C-12.23894875 19.87755126 -9.97141873 22.04046212 -7.5625 24.1875 C-6.76005859 24.94869141 -5.95761719 25.70988281 -5.13085938 26.49414062 C-1.96868122 30.06522926 -1.96868122 30.06522926 2 32 C2.02465881 28.03069011 2.04284023 24.06140966 2.05493164 20.09204102 C2.05997057 18.74079614 2.06680177 17.38955674 2.07543945 16.03833008 C2.08752419 14.09979566 2.09269828 12.161222 2.09765625 10.22265625 C2.10289307 9.05484619 2.10812988 7.88703613 2.11352539 6.68383789 C2.30661495 4.08108449 2.30661495 4.08108449 1 3 C-1.6773138 2.90018786 -4.32304175 2.86120125 -7 2.875 C-7.75023438 2.87113281 -8.50046875 2.86726563 -9.2734375 2.86328125 C-12.93606117 2.52324459 -12.93606117 2.52324459 -16 4 Z " fill="#010709" transform="translate(102,108)"/>
<path d="M0 0 C0.69738281 0.01804687 1.39476563 0.03609375 2.11328125 0.0546875 C3.82611539 0.10161446 5.53823824 0.17335395 7.25 0.25 C7.25 0.91 7.25 1.57 7.25 2.25 C5.64318359 2.32347656 5.64318359 2.32347656 4.00390625 2.3984375 C2.60674361 2.47345294 1.2096095 2.5490013 -0.1875 2.625 C-0.89455078 2.6559375 -1.60160156 2.686875 -2.33007812 2.71875 C-4.14239188 2.82280629 -5.94817988 3.02919892 -7.75 3.25 C-9.04966585 5.8493317 -8.91044162 7.79864203 -8.95532227 10.70947266 C-8.97526749 11.85050446 -8.99521271 12.99153625 -9.01576233 14.16714478 C-9.03247482 15.40362762 -9.04918732 16.64011047 -9.06640625 17.9140625 C-9.08718735 19.17640717 -9.10796844 20.43875183 -9.12937927 21.73934937 C-9.18377926 25.09632045 -9.23400236 28.45330189 -9.28222656 31.81036377 C-9.33245042 35.23561065 -9.38813186 38.66076829 -9.44335938 42.0859375 C-9.55061859 48.80722061 -9.6523744 55.52857044 -9.75 62.25 C-10.74 62.745 -10.74 62.745 -11.75 63.25 C-11.84272514 55.62656384 -11.91377754 48.00318623 -11.95724869 40.37931442 C-11.97811412 36.83909928 -12.00641126 33.29927026 -12.05175781 29.75927734 C-12.10357738 25.68843909 -12.12295369 21.61800573 -12.140625 17.546875 C-12.16127014 16.27696716 -12.18191528 15.00705933 -12.20318604 13.69866943 C-12.20348816 12.51774719 -12.20379028 11.33682495 -12.20410156 10.12011719 C-12.21298401 9.08087097 -12.22186646 8.04162476 -12.23101807 6.97088623 C-11.00816008 0.05377085 -6.04761133 -0.2972361 0 0 Z " fill="#020506" transform="translate(122.75,84.75)"/>
<path d="M0 0 C0.33 0 0.66 0 1 0 C1.04627069 10.91768029 1.08184233 21.83533738 1.10362434 32.75309563 C1.1140768 37.82224863 1.12826257 42.89133473 1.15087891 47.96044922 C1.17255528 52.84929185 1.1845576 57.73806998 1.18975449 62.62695694 C1.19345963 64.49534242 1.20069449 66.36372423 1.21146011 68.23208237 C1.22590594 70.84213739 1.22798086 73.45192337 1.22705078 76.06201172 C1.23424133 76.8402832 1.24143188 77.61855469 1.24884033 78.42041016 C1.22810432 83.77189568 1.22810432 83.77189568 -1 86 C-3.74485593 86.14507695 -6.38480543 86.18652423 -9.125 86.125 C-9.87910156 86.11597656 -10.63320312 86.10695313 -11.41015625 86.09765625 C-13.27357254 86.0740687 -15.13682593 86.03819719 -17 86 C-17.495 83.525 -17.495 83.525 -18 81 C-17.34 81.99 -16.68 82.98 -16 84 C-12.90986743 84.40359724 -12.90986743 84.40359724 -9.4375 84.25 C-8.26058594 84.23453125 -7.08367187 84.2190625 -5.87109375 84.203125 C-3.10409281 84.32257343 -3.10409281 84.32257343 -2 83 C-1.76240975 80.64383439 -1.58709609 78.31399524 -1.45727539 75.95117188 C-1.39454359 74.87349171 -1.39454359 74.87349171 -1.33054447 73.77404022 C-0.91010057 66.11313232 -0.7758354 58.45207676 -0.68359375 50.78125 C-0.66294005 49.30195652 -0.64194199 47.8226678 -0.62062073 46.34338379 C-0.5662662 42.50986682 -0.5164872 38.67630464 -0.46777344 34.8427124 C-0.41691232 30.90682099 -0.36156882 26.97099263 -0.30664062 23.03515625 C-0.20012405 15.35682471 -0.09845757 7.67843957 0 0 Z " fill="#1D684B" transform="translate(159,69)"/>
<path d="M0 0 C2.74158582 3.05466872 2.32452933 6.24749704 2.25299072 10.14762878 C2.25357483 10.97712036 2.25415894 11.80661194 2.25476074 12.66123962 C2.25197242 15.40493009 2.22084581 18.14753616 2.18951416 20.89103699 C2.18205442 22.79246426 2.17636023 24.69389921 2.17236328 26.59533691 C2.15708596 31.60146792 2.11778606 36.60713519 2.07354736 41.61308289 C2.03263989 46.72064439 2.01436194 51.82828078 1.99420166 56.93595886 C1.95129386 66.95894914 1.88301714 76.98159514 1.79888916 87.00431824 C1.46888916 87.00431824 1.13888916 87.00431824 0.79888916 87.00431824 C0.79888916 59.28431824 0.79888916 31.56431824 0.79888916 3.00431824 C-2.76197742 1.81736271 -6.17442108 1.65336406 -9.88861084 1.44181824 C-10.59050537 1.39863464 -11.2923999 1.35545105 -12.01556396 1.31095886 C-13.7438629 1.20514464 -15.47246194 1.10425243 -17.20111084 1.00431824 C-17.20111084 0.67431824 -17.20111084 0.34431824 -17.20111084 0.00431824 C-14.78499713 -0.24510644 -12.37051963 -0.47075678 -9.95111084 -0.68318176 C-9.26919678 -0.75601379 -8.58728271 -0.82884583 -7.88470459 -0.90388489 C-4.95966673 -1.14527151 -2.70111342 -1.22186004 0 0 Z " fill="#020708" transform="translate(160.20111083984375,65.99568176269531)"/>
<path d="M0 0 C1.08667969 -0.04350586 1.08667969 -0.04350586 2.1953125 -0.08789062 C4.3125 -0.11328125 4.3125 -0.11328125 8 0.3125 C10 2.33203125 10 2.33203125 11 4.3125 C10.34 4.6425 9.68 4.9725 9 5.3125 C9 4.6525 9 3.9925 9 3.3125 C5.97715052 3.37289659 2.95898091 3.46007692 -0.0625 3.5625 C-1.33383789 3.58376953 -1.33383789 3.58376953 -2.63085938 3.60546875 C-9.65225793 3.87656522 -14.22415721 5.45955047 -19.25 10.625 C-21.29577981 13.76673327 -22.63224134 16.82471541 -24 20.3125 C-24.66 19.9825 -25.32 19.6525 -26 19.3125 C-25.66232521 13.90970335 -22.58903575 10.12488776 -19 6.3125 C-12.87079431 1.60573261 -7.70907415 0.1028791 0 0 Z " fill="#0F2116" transform="translate(35,3.6875)"/>
<path d="M0 0 C1.12535156 0.00580078 1.12535156 0.00580078 2.2734375 0.01171875 C3.02367187 0.00785156 3.77390625 0.00398438 4.546875 0 C10.14682697 0.01010822 10.14682697 0.01010822 11.2734375 1.13671875 C11.36208958 4.02105695 11.38865046 6.88134033 11.37109375 9.765625 C11.3696788 10.6298558 11.36826385 11.49408661 11.36680603 12.38450623 C11.36118989 15.15611167 11.34863469 17.92763755 11.3359375 20.69921875 C11.33092458 22.57356655 11.32636131 24.4479156 11.32226562 26.32226562 C11.31121522 30.92711419 11.2939398 35.53190296 11.2734375 40.13671875 C10.9434375 40.13671875 10.6134375 40.13671875 10.2734375 40.13671875 C9.9434375 27.59671875 9.6134375 15.05671875 9.2734375 2.13671875 C5.3134375 2.13671875 1.3534375 2.13671875 -2.7265625 2.13671875 C-4.56144867 7.5625345 -4.92663669 12.12710619 -4.7265625 17.82421875 C-4.44094486 26.08570894 -4.44094486 26.08570894 -6.7265625 30.13671875 C-6.75121996 26.02499315 -6.76940209 21.91329597 -6.78149414 17.80151367 C-6.7865333 16.40176647 -6.79336466 15.00202455 -6.80200195 13.60229492 C-6.8140857 11.59426098 -6.81926057 9.58618918 -6.82421875 7.578125 C-6.82945557 6.36842041 -6.83469238 5.15871582 -6.84008789 3.91235352 C-6.63755215 -1.03953642 -4.41079274 0.00796172 0 0 Z " fill="#65E59B" transform="translate(147.7265625,66.86328125)"/>
<path d="M0 0 C1.10601562 0.00064453 2.21203125 0.00128906 3.3515625 0.00195312 C4.50140625 0.01806641 5.65125 0.03417969 6.8359375 0.05078125 C7.99351563 0.04755859 9.15109375 0.04433594 10.34375 0.04101562 C18.94393004 0.09627379 18.94393004 0.09627379 21.2109375 2.36328125 C20.2109375 3.36328125 20.2109375 3.36328125 17.34350586 3.47680664 C16.09190674 3.47156982 14.84030762 3.46633301 13.55078125 3.4609375 C12.55408165 3.45881508 12.55408165 3.45881508 11.5372467 3.45664978 C9.40759851 3.45103643 7.27805411 3.43848179 5.1484375 3.42578125 C3.70768381 3.42076796 2.26692847 3.41620476 0.82617188 3.41210938 C-2.71227352 3.4010627 -6.25065789 3.38378917 -9.7890625 3.36328125 C-6.51762556 0.41313745 -4.36114176 -0.01282485 0 0 Z " fill="#0E2619" transform="translate(111.7890625,3.63671875)"/>
<path d="M0 0 C3.01125 0.061875 6.0225 0.12375 9.125 0.1875 C9.125 7.7775 9.125 15.3675 9.125 23.1875 C8.795 23.1875 8.465 23.1875 8.125 23.1875 C7.795 16.2575 7.465 9.3275 7.125 2.1875 C-4.68488301 1.2880715 -4.68488301 1.2880715 -14.875 6.1875 C-17.01226568 8.42539927 -18.99221531 10.73229359 -20.875 13.1875 C-21.205 12.1975 -21.535 11.2075 -21.875 10.1875 C-20.87109375 8.46875 -20.87109375 8.46875 -19.3125 6.6875 C-18.81621094 6.0996875 -18.31992187 5.511875 -17.80859375 4.90625 C-12.23171374 -0.05097668 -7.08333026 -0.20639926 0 0 Z " fill="#6DEEA2" transform="translate(34.875,6.8125)"/>
<path d="M0 0 C5.61 0 11.22 0 17 0 C17 6.27 17 12.54 17 19 C16.67 19 16.34 19 16 19 C15.67 13.39 15.34 7.78 15 2 C11.04 2 7.08 2 3 2 C2.21974944 5.90125278 1.91565151 8.68774103 2 12.5625 C2.0615527 18.75624078 1.61162431 24.84006947 1 31 C0.67 31 0.34 31 0 31 C0 20.77 0 10.54 0 0 Z " fill="#49DC97" transform="translate(114,88)"/>
<path d="M0 0 C-1.10702112 3.32106337 -1.90211465 3.99500501 -4.53125 6.16015625 C-9.09298484 10.03050316 -13.29724622 14.18415752 -17.5 18.4375 C-18.22703125 19.16904297 -18.9540625 19.90058594 -19.703125 20.65429688 C-21.47109499 22.43389824 -23.23666378 24.21580918 -25 26 C-25.66 25.67 -26.32 25.34 -27 25 C-23.48259521 21.43326807 -19.95875538 17.87307049 -16.42871094 14.31884766 C-15.22801105 13.10807151 -14.0291098 11.89550899 -12.83203125 10.68115234 C-11.11404252 8.93898662 -9.38975125 7.20328456 -7.6640625 5.46875 C-7.12754059 4.92190552 -6.59101868 4.37506104 -6.03823853 3.81164551 C-2.22774341 0 -2.22774341 0 0 0 Z " fill="#3BD292" transform="translate(106,7)"/>
<path d="M0 0 C0.66 0 1.32 0 2 0 C0.54254576 3.36335594 -1.31117854 5.54534005 -3.9140625 8.109375 C-4.67460938 8.86347656 -5.43515625 9.61757813 -6.21875 10.39453125 C-7.0128125 11.17183594 -7.806875 11.94914062 -8.625 12.75 C-9.42679688 13.54277344 -10.22859375 14.33554687 -11.0546875 15.15234375 C-13.03202846 17.10614493 -15.01388909 19.05512103 -17 21 C-17 17.21453144 -16.10599981 16.69566732 -13.53515625 14.0234375 C-12.81779297 13.270625 -12.10042969 12.5178125 -11.36132812 11.7421875 C-10.60271484 10.96101563 -9.84410156 10.17984375 -9.0625 9.375 C-8.30775391 8.58609375 -7.55300781 7.7971875 -6.77539062 6.984375 C-2.01992985 2.01992985 -2.01992985 2.01992985 0 0 Z " fill="#04110D" transform="translate(77,31)"/>
<path d="M0 0 C0.99 0.33 1.98 0.66 3 1 C2.46375 1.391875 1.9275 1.78375 1.375 2.1875 C0.59125 2.785625 -0.1925 3.38375 -1 4 C-1.99 4.70125 -2.98 5.4025 -4 6.125 C-7.81915313 9.27531667 -9.31615634 13.45362211 -11 18 C-11.66 17.67 -12.32 17.34 -13 17 C-12.63003531 11.0805649 -8.68024751 6.37098818 -4.375 2.5625 C-2.8125 1.4375 -2.8125 1.4375 0 0 Z " fill="#08110D" transform="translate(22,6)"/>
<path d="M0 0 C0.45410156 2.4519043 0.45410156 2.4519043 0.390625 5.32421875 C0.37128906 6.86625977 0.37128906 6.86625977 0.3515625 8.43945312 C0.31804687 9.51130859 0.28453125 10.58316406 0.25 11.6875 C0.23195312 12.77095703 0.21390625 13.85441406 0.1953125 14.97070312 C0.14813508 17.64802146 0.08232249 20.32356909 0 23 C-0.33 23 -0.66 23 -1 23 C-1 15.74 -1 8.48 -1 1 C-4.56086658 -0.18695553 -7.97331024 -0.35095418 -11.6875 -0.5625 C-12.38939453 -0.60568359 -13.09128906 -0.64886719 -13.81445312 -0.69335938 C-15.54275206 -0.7991736 -17.2713511 -0.90006581 -19 -1 C-19 -1.33 -19 -1.66 -19 -2 C-16.58388629 -2.24942467 -14.16940879 -2.47507501 -11.75 -2.6875 C-11.06808594 -2.76033203 -10.38617188 -2.83316406 -9.68359375 -2.90820312 C-5.33052582 -3.26743689 -3.08894307 -3.14608347 0 0 Z " fill="#14271A" transform="translate(162,68)"/>
<path d="M0 0 C0.33 0 0.66 0 1 0 C1 1.98 1 3.96 1 6 C1.66 6.33 2.32 6.66 3 7 C3.09866412 11.14389314 2.72451836 14.92458421 2 19 C2 19.99 2 20.98 2 22 C3.32 22.33 4.64 22.66 6 23 C4.33388095 23.042721 2.66617115 23.04063832 1 23 C0 22 0 22 -0.11352539 19.86694336 C-0.10828857 18.95050049 -0.10305176 18.03405762 -0.09765625 17.08984375 C-0.09443359 16.10048828 -0.09121094 15.11113281 -0.08789062 14.09179688 C-0.07951172 13.05087891 -0.07113281 12.00996094 -0.0625 10.9375 C-0.05798828 9.89271484 -0.05347656 8.84792969 -0.04882812 7.77148438 C-0.03699913 5.1809334 -0.02051689 2.59049441 0 0 Z " fill="#056963" transform="translate(113,132)"/>
<path d="M0 0 C0.33 0 0.66 0 1 0 C1.02683987 2.97922593 1.04676037 5.95821295 1.0625 8.9375 C1.07087891 9.78763672 1.07925781 10.63777344 1.08789062 11.51367188 C1.09272461 12.72700195 1.09272461 12.72700195 1.09765625 13.96484375 C1.10551147 15.08814087 1.10551147 15.08814087 1.11352539 16.23413086 C1 18 1 18 0 19 C-2.69654854 19.07319621 -5.36691458 19.09242537 -8.0625 19.0625 C-8.82111328 19.05798828 -9.57972656 19.05347656 -10.36132812 19.04882812 C-12.24091871 19.0370068 -14.12046899 19.01907078 -16 19 C-16.33 17.35 -16.66 15.7 -17 14 C-16.01 15.485 -16.01 15.485 -15 17 C-11.90986743 17.40359724 -11.90986743 17.40359724 -8.4375 17.25 C-7.26058594 17.23453125 -6.08367187 17.2190625 -4.87109375 17.203125 C-2.10409281 17.32257343 -2.10409281 17.32257343 -1 16 C-0.76321284 13.30764224 -0.57801975 10.63501844 -0.4375 7.9375 C-0.39431641 7.17888672 -0.35113281 6.42027344 -0.30664062 5.63867188 C-0.20026367 3.75934562 -0.09960066 1.87969756 0 0 Z " fill="#057D74" transform="translate(158,136)"/>
<path d="M0 0 C2.97 0 5.94 0 9 0 C9 0.33 9 0.66 9 1 C6.03 1 3.06 1 0 1 C0 0.67 0 0.34 0 0 Z M-2 1 C0.75589777 1.01747927 3.38786676 1.13863271 6.125 1.375 C6.87910156 1.43171875 7.63320312 1.4884375 8.41015625 1.546875 C10.27418096 1.6884465 12.13721137 1.84299959 14 2 C14 2.33 14 2.66 14 3 C9.05 3.33 4.1 3.66 -1 4 C-1.33 7.3 -1.66 10.6 -2 14 C-2.33 14 -2.66 14 -3 14 C-3.22151549 12.20991533 -3.42682213 10.41781838 -3.625 8.625 C-3.74101563 7.62726563 -3.85703125 6.62953125 -3.9765625 5.6015625 C-3.98429687 4.74304688 -3.99203125 3.88453125 -4 3 C-3.34 2.34 -2.68 1.68 -2 1 Z " fill="#04261D" transform="translate(88,108)"/>
<path d="M0 0 C-1.7634375 0.7425 -1.7634375 0.7425 -3.5625 1.5 C-8.5619075 3.95960155 -11.62749346 7.65789784 -15 12 C-15.33 11.01 -15.66 10.02 -16 9 C-12.59964058 3.17837298 -6.97864044 -2.15648975 0 0 Z " fill="#63DF94" transform="translate(29,8)"/>
<path d="M0 0 C2.64590014 -0.02684679 5.29153096 -0.04676357 7.9375 -0.0625 C8.69224609 -0.07087891 9.44699219 -0.07925781 10.22460938 -0.08789062 C12.14994313 -0.09652441 14.07535581 -0.05224333 16 0 C17 1 17 1 17.0625 3.5625 C17.041875 4.366875 17.02125 5.17125 17 6 C16.34 4.68 15.68 3.36 15 2 C11.04 2 7.08 2 3 2 C2.34 3.65 1.68 5.3 1 7 C0.67 7 0.34 7 0 7 C0 4.69 0 2.38 0 0 Z " fill="#85F7A6" transform="translate(142,67)"/>
<path d="M0 0 C0.66 0.33 1.32 0.66 2 1 C-0.28356246 3.34138543 -2.57813374 5.67166982 -4.875 8 C-5.85146484 9.00160156 -5.85146484 9.00160156 -6.84765625 10.0234375 C-7.47285156 10.65507812 -8.09804688 11.28671875 -8.7421875 11.9375 C-9.3182373 12.52402344 -9.89428711 13.11054688 -10.48779297 13.71484375 C-12 15 -12 15 -14 15 C-13.67 14.01 -13.34 13.02 -13 12 C-12.34 12 -11.68 12 -11 12 C-11 11.34 -11 10.68 -11 10 C-9.35546875 8.37890625 -9.35546875 8.37890625 -7.1875 6.5625 C-4.68897282 4.45536324 -2.2757944 2.34758602 0 0 Z " fill="#026260" transform="translate(25,124)"/>
<path d="M0 0 C0.33 0.66 0.66 1.32 1 2 C-1.31 4.64 -3.62 7.28 -6 10 C-6.99 9.67 -7.98 9.34 -9 9 C-6.03 6.03 -3.06 3.06 0 0 Z " fill="#129D7B" transform="translate(56,55)"/>
<path d="M0 0 C0 3.71946442 -0.88871542 4.40514236 -3.3125 7.125 C-4.23482422 8.18074219 -4.23482422 8.18074219 -5.17578125 9.2578125 C-7 11 -7 11 -10 12 C-8.52278578 8.54798361 -6.56205999 6.35038064 -3.875 3.75 C-3.15054688 3.04359375 -2.42609375 2.3371875 -1.6796875 1.609375 C-1.12539062 1.07828125 -0.57109375 0.5471875 0 0 Z " fill="#1FB687" transform="translate(73,38)"/>
</svg>
